<svg xmlns="http://www.w3.org/2000/svg" width="24" height="24" viewBox="0 0 24 24">
    <g>
        <path fill="currentColor" d="M1.95 12.1c1.076 0 1.95.874 1.95 1.95 0 1.077-.874 1.95-1.95 1.95C.873 16 0 15.127 0 14.05c0-1.076.873-1.95 1.95-1.95zm6.05 0c1.077 0 1.95.874 1.95 1.95C9.95 15.127 9.077 16 8 16s-1.95-.873-1.95-1.95c0-1.076.873-1.95 1.95-1.95zm6.05 0c1.077 0 1.95.874 1.95 1.95 0 1.077-.873 1.95-1.95 1.95-1.076 0-1.95-.873-1.95-1.95 0-1.076.874-1.95 1.95-1.95zM1.95 6.05c1.076 0 1.95.873 1.95 1.95s-.874 1.95-1.95 1.95C.873 9.95 0 9.077 0 8s.873-1.95 1.95-1.95zm6.05 0c1.077 0 1.95.873 1.95 1.95S9.077 9.95 8 9.95 6.05 9.077 6.05 8 6.923 6.05 8 6.05zm6.05 0C15.127 6.05 16 6.923 16 8s-.873 1.95-1.95 1.95c-1.076 0-1.95-.873-1.95-1.95s.874-1.95 1.95-1.95zM1.95 0C3.026 0 3.9.873 3.9 1.95c0 1.076-.874 1.95-1.95 1.95C.873 3.9 0 3.025 0 1.95 0 .873.873 0 1.95 0zM8 0c1.077 0 1.95.873 1.95 1.95C9.95 3.026 9.077 3.9 8 3.9s-1.95-.874-1.95-1.95C6.05.873 6.923 0 8 0zm6.05 0C15.127 0 16 .873 16 1.95c0 1.076-.873 1.95-1.95 1.95-1.076 0-1.95-.874-1.95-1.95C12.1.873 12.975 0 14.05 0z" transform="translate(4 4)"/>
    </g>
</svg>
